PathFileType	4	(X/Y/Z)	c:\Git\powerlifing_model_clean\simulations\HC835B\Session1\HC835B_OGW_0001\marker_experimental.trc
DataRate	CameraRate	NumFrames	NumMarkers	Units	OrigDataRate	OrigDataStartFrame	OrigNumFrames
240.000000	240.000000	5	38	mm	240.000000	216	433
Frame#	Time	RPSI			LPSI			RASI			LASI			RTH1			RTH2			RTH3			RTH4			RSK1			RSK2			RSK3			RSK4			RCAL1			RCAL2			RCAL3			RST			RPT			RTN			RFMB			RSMB			RVMB			RFMH			RSMH			RVMH			RPM			LTH1			LTH2			LTH3			LTH4			LSK1			LSK2			LSK3			LSK4			LCAL1			LCAL2			LCAL3			LFMH			LVMH			
		X1	Y1	Z1	X2	Y2	Z2	X3	Y3	Z3	X4	Y4	Z4	X5	Y5	Z5	X6	Y6	Z6	X7	Y7	Z7	X8	Y8	Z8	X9	Y9	Z9	X10	Y10	Z10	X11	Y11	Z11	X12	Y12	Z12	X13	Y13	Z13	X14	Y14	Z14	X15	Y15	Z15	X16	Y16	Z16	X17	Y17	Z17	X18	Y18	Z18	X19	Y19	Z19	X20	Y20	Z20	X21	Y21	Z21	X22	Y22	Z22	X23	Y23	Z23	X24	Y24	Z24	X25	Y25	Z25	X26	Y26	Z26	X27	Y27	Z27	X28	Y28	Z28	X29	Y29	Z29	X30	Y30	Z30	X31	Y31	Z31	X32	Y32	Z32	X33	Y33	Z33	X34	Y34	Z34	X35	Y35	Z35	X36	Y36	Z36	X37	Y37	Z37	X38	Y38	Z38	

217	0.9	482.2242736816407	1149.907470703125	-986.773376464844	593.6822509765626	1149.428100585938	-982.761901855469	417.3577880859376	1114.967895507813	-781.4747314453127	654.0258789062501	1108.153930664063	-772.6860351562502	313.4096069335938	851.4426269531252	-764.5856323242189	319.7534179687501	865.4319458007815	-706.2612915039064	314.9342346191407	787.1882324218752	-709.4172973632814	331.2474975585938	798.6230468750002	-654.2307739257814	376.5329284667969	392.0679016113282	-815.5342407226565	366.8490295410157	356.1574707031251	-765.9573974609376	382.9989929199219	333.6596984863282	-820.3737792968752	385.6173400878907	300.7237243652344	-770.1719970703127	461.7260742187501	224.1369018554688	-914.901794433594	499.4910278320314	192.2057037353516	-915.106140136719	438.390838623047	185.3211822509766	-933.0102539062502	497.3093566894532	178.0925598144532	-845.4870605468752	401.5765686035157	167.5663604736328	-881.7061767578127	470.9922790527345	170.3974151611328	-792.6883544921877	465.9403686523439	140.1282043457032	-772.0173950195315	413.2448730468751	151.4365844726563	-764.9265747070314	391.8475952148439	123.3136367797852	-855.3750000000002	468.6594848632814	90.24508666992189	-736.2521362304689	410.9473266601564	93.74694061279298	-729.0277709960939	370.0595703125001	80.23868560791017	-792.2937622070315	413.4444885253907	63.81608963012697	-680.7036132812501	712.7112426757814	821.2913208007815	-872.631774902344	704.9132080078126	805.6145019531252	-814.0666503906252	701.4114990234376	737.7246093750001	-857.767761230469	677.1319580078126	725.0133666992189	-803.1811523437502	649.6195068359376	293.3226318359376	-979.504577636719	653.3533935546876	270.2390441894532	-931.3724365234377	645.2681274414064	238.0404815673829	-968.133972167969	633.4327392578126	217.9526672363282	-916.4729003906252	582.6238403320314	93.88455200195314	-1038.343627929688	613.8501586914064	57.45558929443361	-1038.463500976563	555.5061645507814	54.75282287597658	-1035.308959960938	552.1940917968751	59.79818725585939	-811.5046386718752	657.6746826171876	37.2159538269043	-850.0406494140627	
218	0.9041666666666667	481.644256591797	1149.712158203125	-980.1270141601565	593.1219482421876	1149.164428710938	-976.3804321289065	417.6901245117189	1114.903198242188	-774.3853149414065	654.0537109375001	1107.608154296875	-766.4510498046876	313.3567199707032	851.8856201171877	-756.1504516601564	320.0138549804688	866.0064086914065	-697.8126220703126	314.9732666015626	787.6204833984377	-700.8560791015626	331.9562072753907	799.045837402344	-646.0120849609376	376.2052001953126	388.9295043945314	-801.3084716796877	366.5913085937501	354.1819763183594	-751.0645141601564	382.6308593750001	330.5291137695313	-805.0705566406252	385.2151184082032	298.3598937988282	-754.0324707031251	460.9600524902345	217.9803009033204	-897.0696411132815	498.6525878906251	185.9536285400391	-896.4576416015627	437.4151611328126	178.920394897461	-914.0698242187502	496.4389953613282	173.720687866211	-826.520935058594	400.6106872558595	162.642318725586	-862.3015136718752	470.200653076172	167.5247039794922	-773.457946777344	465.245330810547	138.203109741211	-751.7048950195314	412.7072143554689	149.9315490722657	-744.6468505859376	390.7493286132814	119.0796356201172	-834.7626953125002	467.6107177734376	88.9076614379883	-715.0090332031251	409.9395141601564	92.86538696289064	-707.7365722656251	368.9126586914063	77.56896972656251	-770.7348632812502	412.3883666992189	64.30662536621095	-658.5417480468751	712.3901367187501	821.412536621094	-868.4243164062502	704.7202148437501	805.0850219726565	-810.3557739257815	700.9726562500001	737.7414550781251	-854.2651367187502	676.3547973632814	724.7673339843751	-799.8389282226565	649.5968017578126	293.7863769531251	-978.483337402344	653.2988281250001	270.5157165527344	-930.5804443359377	645.0895996093751	238.3364562988282	-967.4953613281252	633.2699584960939	218.1120605468751	-915.895202636719	582.3808593750001	94.20028686523439	-1038.21630859375	613.5844116210939	57.74324035644533	-1038.346801757813	555.1885375976564	55.03700256347658	-1035.090942382813	552.2489624023439	59.73061370849611	-811.2984619140627	657.6657714843751	37.19519424438477	-850.0003662109377	
219	0.9083333333333333	481.0115966796876	1149.42578125	-973.3348388671877	592.5611572265626	1148.890991210938	-969.965026855469	417.990936279297	1114.646484375	-767.4429321289064	654.1073608398439	1107.002685546875	-760.2052612304689	313.3036193847657	852.091735839844	-747.8279418945314	320.4034729003907	866.399353027344	-689.6041259765626	315.1991882324219	787.9160156250002	-692.5032958984376	332.5896301269532	799.3626708984377	-637.7118530273439	375.8923034667969	385.4295654296876	-787.4661865234377	366.3031616210938	351.8940734863282	-736.3654785156251	382.1704101562501	326.9886169433594	-789.5279541015627	384.8498840332032	296.2100219726563	-738.0142822265626	460.2985839843751	211.9532928466797	-879.1072387695315	497.8898315429689	179.8665008544922	-877.4515380859377	436.7407531738282	172.2379913330078	-895.000915527344	495.8336181640626	169.5399932861328	-806.986511230469	399.6990356445314	157.6941223144532	-842.7875976562502	469.3297119140626	164.6719665527344	-754.1560668945314	464.3153686523439	135.9606323242188	-731.6736450195314	411.5391845703126	147.6616516113282	-725.3725585937501	389.655731201172	114.942138671875	-814.0449218750002	466.5201110839845	87.67295837402345	-693.6011352539064	408.8405761718751	92.0220413208008	-686.4770507812501	367.7943725585938	75.33815765380861	-748.9639282226564	411.1895751953126	64.6423797607422	-636.6699829101564	712.1050415039064	821.450622558594	-864.201599121094	703.6215820312501	804.9060668945315	-806.0254516601565	700.5570678710939	737.6851196289064	-850.7420043945315	675.7217407226564	724.1092529296876	-796.627624511719	650.0339965820314	294.3832702636719	-977.2503051757815	652.9815673828126	270.5970153808594	-929.851989746094	644.9024658203126	238.6260528564454	-966.820007324219	633.0765991210939	218.2391662597657	-915.287780761719	582.0994873046876	94.45932006835939	-1037.941162109375	613.3295288085939	58.0435028076172	-1038.226684570313	554.9319458007814	55.26869964599611	-1034.923583984375	552.2719116210939	59.63351058959962	-811.106628417969	657.6476440429689	37.15813064575196	-850.008483886719	
220	0.9125	480.4245605468751	1149.006469726563	-966.5827636718752	591.9698486328126	1148.561401367188	-963.5117797851565	418.2703247070314	1114.290649414063	-760.4341430664064	654.1469116210939	1106.256469726563	-754.0181884765626	313.3374328613282	852.209655761719	-739.6551513671876	320.8352966308594	866.4414062500002	-681.4848632812501	315.4751892089844	787.9380493164065	-684.2568969726564	333.3012695312501	799.6043090820315	-629.5959472656251	375.5618286132813	381.9042968750001	-773.370788574219	365.9623107910157	349.8056640625001	-721.4221191406251	381.7678222656251	323.4051208496094	-774.1242675781252	384.4828186035157	294.0199890136719	-721.9587402343751	459.4615783691407	205.7901153564454	-860.8182373046877	497.0208129882814	173.6150054931641	-858.4162597656252	435.7910156250001	165.6958465576172	-875.748718261719	495.2005615234376	165.2548522949219	-787.8120727539065	399.3364562988282	152.3182525634766	-823.8090820312502	468.287322998047	162.1163787841797	-734.1415405273439	463.3545837402345	133.770004272461	-711.5328369140626	410.8851623535157	146.2346649169922	-705.0516357421876	388.4849853515626	110.8429107666016	-793.1676025390627	465.3914184570314	86.5234832763672	-672.1881713867189	407.699432373047	91.35051727294923	-665.1585693359376	366.5066833496094	73.30197143554689	-727.0014038085939	410.0674133300782	65.37384033203126	-614.5167846679689	711.7719726562501	821.3841552734377	-859.9151611328127	702.8264770507814	804.6109008789065	-801.894714355469	700.0946044921876	737.5178833007814	-847.1367187500002	674.9578247070314	723.5905761718751	-793.264343261719	649.7598876953126	294.5899963378907	-976.4287109375002	652.9952392578126	270.8447875976563	-928.9979248046877	644.6923217773439	238.8680725097657	-966.1672363281252	632.8461303710939	218.3345336914063	-914.640319824219	581.8348388671876	94.78395843505861	-1037.715209960938	613.0568237304689	58.34408950805665	-1038.098999023438	554.6845703125001	55.51812744140626	-1034.75244140625	552.3039550781251	59.55715942382814	-810.885192871094	657.6400756835939	37.13099670410157	-849.9830322265627	
221	0.9166666666666666	479.7755432128907	1148.560791015625	-959.931823730469	591.3713989257814	1148.198608398438	-957.0300903320315	418.513885498047	1113.76171875	-753.4026489257814	654.1823120117189	1105.453491210938	-747.7949218750001	313.4435729980469	852.0567016601565	-731.5903320312501	321.2484436035157	866.4922485351565	-673.4346313476564	315.7611694335938	788.0773925781252	-676.0509643554689	333.9736938476563	799.7797851562502	-621.5745239257814	375.2127685546876	378.3403015136719	-759.2762451171876	365.5850219726563	347.7331542968751	-706.7683715820314	381.5601501464844	319.8404541015626	-758.8577270507814	384.0061950683595	291.6515808105469	-705.7842407226564	458.6966552734376	199.6111450195313	-842.653747558594	496.1105957031251	167.3429718017578	-839.2680664062502	434.529022216797	159.5229034423828	-856.660827636719	494.191375732422	160.8722229003907	-768.4797973632815	398.334930419922	147.483642578125	-803.9896240234377	467.3774414062501	159.447494506836	-714.6093750000001	462.2979736328126	131.6751861572266	-691.3952026367189	409.9335327148439	144.4713287353516	-685.1674194335939	387.4345092773439	106.9351348876953	-772.3731689453127	464.2400207519532	85.52465820312501	-650.7013549804689	406.5558471679689	90.75825500488283	-643.7441406250001	365.2680053710938	71.00253295898439	-705.2648925781251	408.8360595703126	66.30796813964845	-592.4234619140626	711.5402832031251	821.3277587890627	-855.5941162109377	702.1123657226564	804.1428833007815	-797.7551269531252	699.7529296875001	737.3564453125001	-843.4616699218752	674.2797851562501	723.1099243164064	-789.8687133789065	649.6793823242189	294.9624328613282	-975.5071411132815	652.6213378906251	270.9354553222657	-928.1107177734377	644.4834594726564	239.1288452148438	-965.4611816406252	632.7957763671876	218.6247253417969	-913.7596435546877	581.5285034179689	95.00362396240236	-1037.458374023438	612.8168945312501	58.66635894775392	-1037.975830078125	554.3468017578126	55.73773574829103	-1034.540771484375	552.3110351562501	59.42518997192384	-810.6884765625002	657.6470336914064	37.14701843261719	-849.9779052734377	
